<mxfile host="app.diagrams.net" agent="Mozilla/5.0 (X11; Ubuntu; Linux x86_64; rv:136.0) Gecko/20100101 Firefox/136.0" version="28.1.2" pages="4">
  <diagram name="Exercício 01" id="qS-ylBz9SSiYA_aGjv_3">
    <mxGraphModel dx="786" dy="684" grid="1" gridSize="10" guides="1" tooltips="1" connect="1" arrows="1" fold="1" page="1" pageScale="1" pageWidth="827" pageHeight="1169" math="0" shadow="0">
      <root>
        <mxCell id="0" />
        <mxCell id="1" parent="0" />
        <mxCell id="n6YcpLarOEklr6ScA9_2-2" value="Início" style="strokeWidth=2;html=1;shape=mxgraph.flowchart.terminator;whiteSpace=wrap;" parent="1" vertex="1">
          <mxGeometry x="70" y="20" width="100" height="60" as="geometry" />
        </mxCell>
        <mxCell id="n6YcpLarOEklr6ScA9_2-5" value="" style="endArrow=classic;html=1;rounded=0;exitX=0.5;exitY=1;exitDx=0;exitDy=0;exitPerimeter=0;" parent="1" source="n6YcpLarOEklr6ScA9_2-2" edge="1">
          <mxGeometry width="50" height="50" relative="1" as="geometry">
            <mxPoint x="119.5" y="90" as="sourcePoint" />
            <mxPoint x="119.5" y="170" as="targetPoint" />
          </mxGeometry>
        </mxCell>
        <mxCell id="n6YcpLarOEklr6ScA9_2-6" value="Alô Mundo!" style="strokeWidth=2;html=1;shape=mxgraph.flowchart.display;whiteSpace=wrap;" parent="1" vertex="1">
          <mxGeometry x="70" y="170" width="100" height="60" as="geometry" />
        </mxCell>
        <mxCell id="n6YcpLarOEklr6ScA9_2-7" value="Fim" style="strokeWidth=2;html=1;shape=mxgraph.flowchart.terminator;whiteSpace=wrap;" parent="1" vertex="1">
          <mxGeometry x="70" y="310" width="100" height="60" as="geometry" />
        </mxCell>
        <mxCell id="n6YcpLarOEklr6ScA9_2-8" value="" style="endArrow=classic;html=1;rounded=0;entryX=0.5;entryY=0;entryDx=0;entryDy=0;entryPerimeter=0;" parent="1" target="n6YcpLarOEklr6ScA9_2-7" edge="1">
          <mxGeometry width="50" height="50" relative="1" as="geometry">
            <mxPoint x="119.5" y="230" as="sourcePoint" />
            <mxPoint x="119.5" y="300" as="targetPoint" />
          </mxGeometry>
        </mxCell>
      </root>
    </mxGraphModel>
  </diagram>
  <diagram id="x9txS1pH5o23Tjhh_IMr" name="Exercício 02">
    <mxGraphModel dx="786" dy="684" grid="1" gridSize="10" guides="1" tooltips="1" connect="1" arrows="1" fold="1" page="1" pageScale="1" pageWidth="827" pageHeight="1169" math="0" shadow="0">
      <root>
        <mxCell id="0" />
        <mxCell id="1" parent="0" />
        <mxCell id="3f8ZPLyIsFEpUA58ugWv-1" value="Início" style="strokeWidth=2;html=1;shape=mxgraph.flowchart.terminator;whiteSpace=wrap;" vertex="1" parent="1">
          <mxGeometry x="50" y="40" width="100" height="70" as="geometry" />
        </mxCell>
        <mxCell id="3f8ZPLyIsFEpUA58ugWv-3" value="Número" style="strokeWidth=2;html=1;shape=mxgraph.flowchart.display;whiteSpace=wrap;" vertex="1" parent="1">
          <mxGeometry x="50" y="280" width="100" height="60" as="geometry" />
        </mxCell>
        <mxCell id="3f8ZPLyIsFEpUA58ugWv-4" value="Fim" style="strokeWidth=2;html=1;shape=mxgraph.flowchart.terminator;whiteSpace=wrap;" vertex="1" parent="1">
          <mxGeometry x="50" y="400" width="100" height="60" as="geometry" />
        </mxCell>
        <mxCell id="3f8ZPLyIsFEpUA58ugWv-2" value="Número" style="html=1;strokeWidth=2;shape=manualInput;whiteSpace=wrap;rounded=1;size=26;arcSize=11;" vertex="1" parent="1">
          <mxGeometry x="50" y="160" width="100" height="60" as="geometry" />
        </mxCell>
        <mxCell id="3f8ZPLyIsFEpUA58ugWv-8" style="edgeStyle=orthogonalEdgeStyle;rounded=0;orthogonalLoop=1;jettySize=auto;html=1;entryX=0.5;entryY=0.167;entryDx=0;entryDy=0;entryPerimeter=0;" edge="1" parent="1" source="3f8ZPLyIsFEpUA58ugWv-1" target="3f8ZPLyIsFEpUA58ugWv-2">
          <mxGeometry relative="1" as="geometry" />
        </mxCell>
        <mxCell id="3f8ZPLyIsFEpUA58ugWv-9" style="edgeStyle=orthogonalEdgeStyle;rounded=0;orthogonalLoop=1;jettySize=auto;html=1;entryX=0.5;entryY=0;entryDx=0;entryDy=0;entryPerimeter=0;" edge="1" parent="1" source="3f8ZPLyIsFEpUA58ugWv-2" target="3f8ZPLyIsFEpUA58ugWv-3">
          <mxGeometry relative="1" as="geometry" />
        </mxCell>
        <mxCell id="3f8ZPLyIsFEpUA58ugWv-10" style="edgeStyle=orthogonalEdgeStyle;rounded=0;orthogonalLoop=1;jettySize=auto;html=1;entryX=0.5;entryY=0;entryDx=0;entryDy=0;entryPerimeter=0;" edge="1" parent="1" source="3f8ZPLyIsFEpUA58ugWv-3" target="3f8ZPLyIsFEpUA58ugWv-4">
          <mxGeometry relative="1" as="geometry" />
        </mxCell>
      </root>
    </mxGraphModel>
  </diagram>
  <diagram id="mGYSgD_K2n74JkJz3ndn" name="Exercicio 3">
    <mxGraphModel dx="786" dy="1853" grid="1" gridSize="10" guides="1" tooltips="1" connect="1" arrows="1" fold="1" page="1" pageScale="1" pageWidth="827" pageHeight="1169" math="0" shadow="0">
      <root>
        <mxCell id="0" />
        <mxCell id="1" parent="0" />
        <mxCell id="6r5uahK9rkPgmc5wjtF0-1" value="Início" style="strokeWidth=2;html=1;shape=mxgraph.flowchart.terminator;whiteSpace=wrap;" vertex="1" parent="1">
          <mxGeometry x="40" y="-660" width="100" height="60" as="geometry" />
        </mxCell>
        <mxCell id="6r5uahK9rkPgmc5wjtF0-2" value="Número 1:" style="html=1;strokeWidth=2;shape=manualInput;whiteSpace=wrap;rounded=1;size=26;arcSize=11;" vertex="1" parent="1">
          <mxGeometry x="40" y="-550" width="100" height="60" as="geometry" />
        </mxCell>
        <mxCell id="6r5uahK9rkPgmc5wjtF0-8" style="edgeStyle=orthogonalEdgeStyle;rounded=0;orthogonalLoop=1;jettySize=auto;html=1;exitX=0.5;exitY=1;exitDx=0;exitDy=0;" edge="1" parent="1" source="6r5uahK9rkPgmc5wjtF0-3" target="6r5uahK9rkPgmc5wjtF0-4">
          <mxGeometry relative="1" as="geometry" />
        </mxCell>
        <mxCell id="6r5uahK9rkPgmc5wjtF0-3" value="Número 2:" style="html=1;strokeWidth=2;shape=manualInput;whiteSpace=wrap;rounded=1;size=26;arcSize=11;" vertex="1" parent="1">
          <mxGeometry x="40" y="-430" width="100" height="70" as="geometry" />
        </mxCell>
        <mxCell id="6r5uahK9rkPgmc5wjtF0-9" style="edgeStyle=orthogonalEdgeStyle;rounded=0;orthogonalLoop=1;jettySize=auto;html=1;exitX=0.5;exitY=1;exitDx=0;exitDy=0;exitPerimeter=0;" edge="1" parent="1" source="6r5uahK9rkPgmc5wjtF0-4" target="6r5uahK9rkPgmc5wjtF0-5">
          <mxGeometry relative="1" as="geometry" />
        </mxCell>
        <mxCell id="6r5uahK9rkPgmc5wjtF0-4" value="Soma" style="strokeWidth=2;html=1;shape=mxgraph.flowchart.display;whiteSpace=wrap;" vertex="1" parent="1">
          <mxGeometry x="40" y="-310" width="100" height="60" as="geometry" />
        </mxCell>
        <mxCell id="6r5uahK9rkPgmc5wjtF0-5" value="Fim" style="strokeWidth=2;html=1;shape=mxgraph.flowchart.terminator;whiteSpace=wrap;" vertex="1" parent="1">
          <mxGeometry x="40" y="-200" width="100" height="60" as="geometry" />
        </mxCell>
        <mxCell id="6r5uahK9rkPgmc5wjtF0-6" style="edgeStyle=orthogonalEdgeStyle;rounded=0;orthogonalLoop=1;jettySize=auto;html=1;exitX=0.5;exitY=1;exitDx=0;exitDy=0;exitPerimeter=0;entryX=0.5;entryY=0.2;entryDx=0;entryDy=0;entryPerimeter=0;" edge="1" parent="1" source="6r5uahK9rkPgmc5wjtF0-1" target="6r5uahK9rkPgmc5wjtF0-2">
          <mxGeometry relative="1" as="geometry" />
        </mxCell>
        <mxCell id="6r5uahK9rkPgmc5wjtF0-7" style="edgeStyle=orthogonalEdgeStyle;rounded=0;orthogonalLoop=1;jettySize=auto;html=1;exitX=0.5;exitY=1;exitDx=0;exitDy=0;entryX=0.5;entryY=0.15;entryDx=0;entryDy=0;entryPerimeter=0;" edge="1" parent="1" source="6r5uahK9rkPgmc5wjtF0-2" target="6r5uahK9rkPgmc5wjtF0-3">
          <mxGeometry relative="1" as="geometry" />
        </mxCell>
      </root>
    </mxGraphModel>
  </diagram>
  <diagram id="rRHvm_4YidQqtCvkfnX1" name="Página-4">
    <mxGraphModel dx="786" dy="684" grid="1" gridSize="10" guides="1" tooltips="1" connect="1" arrows="1" fold="1" page="1" pageScale="1" pageWidth="827" pageHeight="1169" math="0" shadow="0">
      <root>
        <mxCell id="0" />
        <mxCell id="1" parent="0" />
      </root>
    </mxGraphModel>
  </diagram>
</mxfile>
